<svg width="41" height="40" viewBox="0 0 41 40" fill="none" xmlns="http://www.w3.org/2000/svg">
<path d="M10.5834 6C11.5834 5 10.8334 2 9.14538 2C7.45738 2 7.58338 4 8.58338 4C9.58338 4 9.58338 6 9.58338 7C9.58338 8 10.5834 6 10.5834 6ZM6.40038 7.72C7.40038 6.72 6.65038 3.72 4.96238 3.72C3.27438 3.72 3.40038 5.72 4.40038 5.72C5.40038 5.72 5.40038 7.72 5.40038 8.72C5.40038 9.72 6.40038 7.72 6.40038 7.72Z" fill="#AA8DD8"/>
<path d="M32.7754 34.856C32.9644 35.664 34.0024 37.136 34.8074 36.947C35.6134 36.757 35.8844 34.976 35.6954 34.17C35.5064 33.362 34.6974 32.863 33.8914 33.053C33.0864 33.243 32.5854 34.05 32.7754 34.856ZM27.3414 35.505C27.3444 36.335 28.0224 38.003 28.8504 38C29.6784 37.996 30.3444 36.323 30.3414 35.494C30.3384 34.665 29.6644 33.997 28.8364 33.999C28.0084 34.003 27.3384 34.676 27.3414 35.505ZM22.0704 33.059C21.7444 33.823 21.7054 35.622 22.4664 35.949C23.2294 36.273 24.5034 35.002 24.8294 34.239C25.1544 33.477 24.8014 32.596 24.0404 32.269C23.2784 31.944 22.3974 32.296 22.0704 33.059ZM17.0394 22.019C16.2274 22.191 14.7314 23.192 14.9004 24.002C15.0734 24.812 16.8454 25.126 17.6574 24.955C18.4684 24.784 18.9864 23.988 18.8174 23.178C18.6454 22.368 17.8524 21.848 17.0394 22.019ZM15.0024 17.019C14.1904 17.191 12.6944 18.192 12.8634 19.002C13.0364 19.812 14.8084 20.126 15.6204 19.955C16.4314 19.784 16.9494 18.988 16.7804 18.178C16.6084 17.368 15.8144 16.848 15.0024 17.019Z" fill="#744EAA"/>
<path d="M30.4124 36C33.2434 36 35.3384 35.123 35.6784 34.973C37.9494 33.963 38.9714 31.304 37.9624 29.034C36.9634 26.784 34.3464 25.759 32.0904 26.72C31.9574 26.77 30.2974 27.369 28.7474 26.648C26.8964 25.787 25.7524 23.339 25.1194 21.439C24.9754 21.009 24.7344 20.165 24.4334 19.123C22.5674 12.652 21.6014 10.838 20.4504 9.30299C16.7394 4.35199 10.8584 4.00699 7.96736 4.58699C5.53036 5.07399 3.94936 7.44499 4.43736 9.88199C4.92536 12.32 7.29736 13.902 9.73336 13.412C9.89536 13.386 11.9374 13.106 13.1574 14.581C13.8004 15.868 15.2374 19.709 15.7874 21.615C16.1334 22.814 16.4164 23.786 16.5814 24.282C18.3544 29.599 21.2474 33.175 25.1844 34.911C27.0364 35.729 28.8384 36 30.4124 36Z" fill="#9266CC"/>
<path d="M9.8504 8C10.4027 8 10.8504 7.55228 10.8504 7C10.8504 6.44772 10.4027 6 9.8504 6C9.29812 6 8.8504 6.44772 8.8504 7C8.8504 7.55228 9.29812 8 9.8504 8Z" fill="#202024"/>
<path d="M34.0914 34.964C34.0024 34.964 33.9114 34.952 33.8224 34.928C33.2904 34.78 32.9784 34.229 33.1264 33.697C33.8834 30.975 32.3564 29.155 32.3414 29.137C31.9824 28.718 32.0294 28.086 32.4484 27.727C32.8664 27.368 33.4994 27.415 33.8584 27.834C33.9504 27.941 36.0924 30.494 35.0534 34.231C34.9314 34.674 34.5284 34.964 34.0914 34.964ZM26.8924 34.401C26.6474 34.401 26.4024 34.312 26.2084 34.131C25.8054 33.753 25.7844 33.12 26.1614 32.717C27.6464 31.13 27.6144 28.524 27.6134 28.497C27.5974 27.945 28.0324 27.485 28.5854 27.469C29.1274 27.464 29.5984 27.888 29.6134 28.441C29.6174 28.58 29.6864 31.878 27.6224 34.085C27.4254 34.295 27.1584 34.401 26.8924 34.401ZM18.3504 25.705C17.8704 25.705 17.4464 25.358 17.3654 24.868C17.2754 24.324 17.6434 23.808 18.1884 23.719C21.2624 23.209 22.9624 21.342 22.9794 21.323C23.3444 20.913 23.9774 20.874 24.3884 21.239C24.8004 21.604 24.8414 22.232 24.4794 22.645C24.3924 22.744 22.3234 25.06 18.5154 25.691C18.4594 25.701 18.4044 25.705 18.3504 25.705ZM21.2714 30.562C20.8464 30.562 20.4524 30.29 20.3174 29.864C20.1514 29.338 20.4434 28.775 20.9694 28.609C23.6624 27.756 24.8494 25.779 24.8614 25.759C25.1414 25.282 25.7534 25.122 26.2294 25.402C26.7064 25.681 26.8654 26.295 26.5864 26.77C26.5234 26.878 24.9914 29.433 21.5734 30.514C21.4724 30.547 21.3704 30.562 21.2714 30.562ZM16.6524 19.892C16.1564 19.892 15.7254 19.523 15.6614 19.017C15.5924 18.469 15.9804 17.969 16.5284 17.899C19.2174 17.559 21.1854 15.928 21.2044 15.911C21.6264 15.557 22.2574 15.608 22.6124 16.03C22.9684 16.451 22.9174 17.08 22.4974 17.437C22.4004 17.52 20.0774 19.466 16.7794 19.883C16.7364 19.889 16.6944 19.892 16.6524 19.892ZM14.8314 15.125C14.4064 15.125 14.0124 14.852 13.8774 14.424C13.7124 13.897 14.0044 13.336 14.5314 13.17C17.6614 12.187 18.7844 10.478 18.8304 10.406C19.1254 9.94397 19.7414 9.80097 20.2054 10.094C20.6704 10.386 20.8164 10.993 20.5294 11.46C20.4694 11.557 19.0234 13.856 15.1304 15.079C15.0314 15.11 14.9304 15.125 14.8314 15.125Z" fill="#744EAA"/>
</svg>
