<svg width="41" height="40" viewBox="0 0 41 40" fill="none" xmlns="http://www.w3.org/2000/svg">
<path d="M38.3334 14.875C38.3334 11.009 35.1994 7.875 31.3334 7.875C30.1664 7.875 29.0684 8.165 28.1014 8.669C26.0194 5.842 22.6764 4 18.8964 4C13.7644 4 9.42137 7.38 7.97337 12.036C5.31537 12.653 3.33337 15.03 3.33337 17.875C3.33337 20.854 5.50737 23.32 8.35437 23.788C8.57037 27.737 11.8314 30.875 15.8334 30.875C18.0094 30.875 19.9634 29.942 21.3334 28.462C22.7034 29.942 24.6564 30.875 26.8334 30.875C30.9764 30.875 34.3334 27.518 34.3334 23.375C34.3334 22.665 34.2284 21.981 34.0444 21.33C36.5634 20.271 38.3334 17.78 38.3334 14.875Z" fill="#85C8F8"/>
<path d="M7.33337 36.875C8.99023 36.875 10.3334 35.5319 10.3334 33.875C10.3334 32.2181 8.99023 30.875 7.33337 30.875C5.67652 30.875 4.33337 32.2181 4.33337 33.875C4.33337 35.5319 5.67652 36.875 7.33337 36.875Z" fill="#85C8F8"/>
</svg>
